<?xml version="1.0" encoding="utf-8"?>
<!-- Generator: Adobe Illustrator 19.0.1, SVG Export Plug-In . SVG Version: 6.00 Build 0)  -->
<svg version="1.1" id="圖層_1" xmlns="http://www.w3.org/2000/svg" xmlns:xlink="http://www.w3.org/1999/xlink" x="0px" y="0px"
	 viewBox="0 0 70.8 31.3" style="enable-background:new 0 0 70.8 31.3;" xml:space="preserve">
<g>
	<g>
		<g>
			<path d="M43,17v2.9c0,0.2,0,0.3,0,0.5c0,0.2,0,0.3,0.1,0.4c0.1,0.1,0.2,0.2,0.3,0.3c0.1,0.1,0.3,0.1,0.5,0.1c0.2,0,0.4,0,0.5-0.1
				c0.1-0.1,0.2-0.2,0.3-0.3c0.1-0.1,0.1-0.3,0.1-0.4c0-0.2,0-0.3,0-0.5V17h1.4v3.1c0,0.8-0.2,1.4-0.6,1.8c-0.4,0.4-1,0.6-1.8,0.6
				c-0.8,0-1.4-0.2-1.8-0.6c-0.4-0.4-0.6-1-0.6-1.8V17H43z"/>
			<path d="M47.1,18.7h1.3v0.5c0.2-0.2,0.4-0.4,0.5-0.4c0.2-0.1,0.4-0.1,0.6-0.1c0.3,0,0.5,0,0.7,0.1c0.2,0.1,0.3,0.2,0.5,0.4
				c0.1,0.1,0.2,0.3,0.2,0.4c0,0.2,0.1,0.3,0.1,0.5v2.3h-1.3v-1.8c0-0.2,0-0.3,0-0.4c0-0.1-0.1-0.2-0.1-0.3
				c-0.1-0.1-0.1-0.1-0.2-0.1c-0.1,0-0.1,0-0.2,0c-0.2,0-0.4,0.1-0.5,0.2c-0.1,0.1-0.2,0.3-0.2,0.6v2h-1.3V18.7z"/>
			<path d="M51.7,17h2.1c0.5,0,0.9,0.1,1.1,0.4c0.3,0.2,0.4,0.6,0.4,1c0,0.3,0,0.5-0.1,0.7c-0.1,0.2-0.2,0.3-0.4,0.5
				c0.2,0,0.4,0.1,0.5,0.2c0.1,0.1,0.3,0.2,0.3,0.3c0.1,0.1,0.2,0.2,0.2,0.4c0,0.1,0.1,0.3,0.1,0.5c0,0.3,0,0.5-0.1,0.7
				c-0.1,0.2-0.2,0.4-0.4,0.5c-0.2,0.1-0.4,0.2-0.6,0.3c-0.2,0.1-0.5,0.1-0.8,0.1h-2.2V17z M53.1,19.1h0.3c0.4,0,0.7-0.2,0.7-0.5
				c0-0.3-0.2-0.5-0.7-0.5h-0.3V19.1z M53.1,21.3h0.3c0.4,0,0.6,0,0.8-0.1c0.2-0.1,0.2-0.2,0.2-0.4c0-0.2-0.1-0.3-0.2-0.4
				c-0.2-0.1-0.4-0.1-0.8-0.1h-0.3V21.3z"/>
			<path d="M57.5,16.4v5.9h-1.3v-5.9H57.5z"/>
			<path d="M58,20.5c0-0.3,0.1-0.5,0.2-0.8c0.1-0.2,0.3-0.4,0.5-0.6c0.2-0.2,0.4-0.3,0.7-0.4c0.3-0.1,0.6-0.1,0.9-0.1
				c0.3,0,0.6,0,0.9,0.1c0.3,0.1,0.5,0.2,0.7,0.4c0.2,0.2,0.4,0.4,0.5,0.6c0.1,0.2,0.2,0.5,0.2,0.8c0,0.3-0.1,0.6-0.2,0.8
				c-0.1,0.2-0.3,0.4-0.5,0.6c-0.2,0.2-0.4,0.3-0.7,0.4c-0.3,0.1-0.6,0.1-0.9,0.1c-0.3,0-0.6,0-0.9-0.1c-0.3-0.1-0.5-0.2-0.7-0.4
				c-0.2-0.2-0.3-0.4-0.5-0.6C58,21.1,58,20.8,58,20.5z M59.3,20.5c0,0.1,0,0.2,0.1,0.3c0,0.1,0.1,0.2,0.2,0.3
				c0.1,0.1,0.2,0.1,0.3,0.2c0.1,0,0.2,0.1,0.3,0.1c0.1,0,0.2,0,0.3-0.1c0.1,0,0.2-0.1,0.3-0.2c0.1-0.1,0.1-0.2,0.2-0.3
				c0-0.1,0.1-0.2,0.1-0.3c0-0.1,0-0.2-0.1-0.3c0-0.1-0.1-0.2-0.2-0.3c-0.1-0.1-0.2-0.1-0.3-0.2c-0.1,0-0.2-0.1-0.3-0.1
				c-0.1,0-0.2,0-0.3,0.1c-0.1,0-0.2,0.1-0.3,0.2c-0.1,0.1-0.1,0.2-0.2,0.3C59.4,20.3,59.3,20.4,59.3,20.5z"/>
			<path d="M65.6,19.9c-0.2-0.2-0.4-0.2-0.7-0.2c-0.1,0-0.2,0-0.3,0.1s-0.2,0.1-0.3,0.2c-0.1,0.1-0.1,0.2-0.2,0.3
				c0,0.1-0.1,0.2-0.1,0.4c0,0.1,0,0.2,0.1,0.4c0,0.1,0.1,0.2,0.2,0.3c0.1,0.1,0.2,0.1,0.3,0.2c0.1,0,0.2,0.1,0.3,0.1
				c0.2,0,0.5-0.1,0.7-0.2v1.1c-0.3,0.1-0.6,0.2-0.9,0.2c-0.3,0-0.5,0-0.8-0.1c-0.2-0.1-0.5-0.2-0.6-0.4c-0.2-0.2-0.3-0.4-0.4-0.6
				c-0.1-0.2-0.2-0.5-0.2-0.8c0-0.3,0.1-0.6,0.2-0.8c0.1-0.2,0.2-0.4,0.4-0.6c0.2-0.2,0.4-0.3,0.6-0.4c0.2-0.1,0.5-0.1,0.8-0.1
				c0.3,0,0.6,0.1,0.9,0.2V19.9z"/>
			<path d="M67.5,16.4V20l1.4-1.3h1.8l-1.8,1.7l1.9,2h-1.8l-1.4-1.5v1.5h-1.3v-5.9H67.5z"/>
			<path d="M44.9,28.5h-2l-0.3,0.9h-1.5l2-5.4h1.5l2,5.4h-1.5L44.9,28.5z M44.6,27.5l-0.6-1.8l-0.6,1.8H44.6z"/>
			<path d="M47,25.8h1.3v0.5c0.2-0.2,0.4-0.4,0.5-0.4c0.2-0.1,0.4-0.1,0.6-0.1c0.3,0,0.5,0,0.7,0.1c0.2,0.1,0.3,0.2,0.5,0.4
				c0.1,0.1,0.2,0.3,0.2,0.4c0,0.2,0.1,0.3,0.1,0.5v2.3h-1.3v-1.8c0-0.2,0-0.3,0-0.4c0-0.1-0.1-0.2-0.1-0.3
				c-0.1-0.1-0.1-0.1-0.2-0.1c-0.1,0-0.1,0-0.2,0c-0.2,0-0.4,0.1-0.5,0.2c-0.1,0.1-0.2,0.3-0.2,0.6v2H47V25.8z"/>
			<path d="M54.3,25.8h1.3v3.7h-1.3v-0.4c-0.3,0.3-0.6,0.5-1.1,0.5c-0.3,0-0.5,0-0.7-0.1c-0.2-0.1-0.4-0.2-0.6-0.4
				c-0.2-0.2-0.3-0.4-0.4-0.6c-0.1-0.2-0.1-0.5-0.1-0.8c0-0.3,0-0.5,0.1-0.7c0.1-0.2,0.2-0.4,0.4-0.6c0.2-0.2,0.4-0.3,0.6-0.4
				c0.2-0.1,0.5-0.2,0.7-0.2c0.5,0,0.8,0.2,1.1,0.5V25.8z M52.7,27.6c0,0.1,0,0.2,0.1,0.3c0,0.1,0.1,0.2,0.2,0.3
				c0.1,0.1,0.2,0.1,0.3,0.2c0.1,0,0.2,0.1,0.3,0.1c0.1,0,0.2,0,0.3-0.1c0.1,0,0.2-0.1,0.3-0.2c0.1-0.1,0.1-0.2,0.2-0.3
				c0-0.1,0.1-0.2,0.1-0.3c0-0.1,0-0.2-0.1-0.3c0-0.1-0.1-0.2-0.2-0.3c-0.1-0.1-0.2-0.1-0.3-0.2c-0.1,0-0.2-0.1-0.3-0.1
				c-0.1,0-0.2,0-0.3,0.1c-0.1,0-0.2,0.1-0.3,0.2c-0.1,0.1-0.1,0.2-0.2,0.3C52.7,27.4,52.7,27.5,52.7,27.6z"/>
			<path d="M57.5,23.6v5.9h-1.3v-5.9H57.5z"/>
			<path d="M59.5,29l-1.8-3.2h1.5l1,1.9l0.9-1.9h1.5l-2.9,5.5h-1.4L59.5,29z"/>
			<path d="M65,26.8c-0.2-0.1-0.5-0.2-0.7-0.2c-0.1,0-0.2,0-0.3,0.1c-0.1,0-0.1,0.1-0.1,0.2c0,0,0,0.1,0,0.1c0,0,0,0.1,0.1,0.1
				c0,0,0.1,0,0.2,0.1c0.1,0,0.2,0,0.3,0.1c0.4,0.1,0.6,0.2,0.8,0.4c0.2,0.2,0.3,0.4,0.3,0.7c0,0.2,0,0.4-0.1,0.6
				c-0.1,0.2-0.2,0.3-0.4,0.4c-0.2,0.1-0.3,0.2-0.5,0.3c-0.2,0.1-0.4,0.1-0.7,0.1c-0.5,0-1-0.1-1.5-0.4l0.5-0.9
				c0.4,0.2,0.7,0.4,1,0.4c0.1,0,0.2,0,0.3-0.1c0.1-0.1,0.1-0.1,0.1-0.2c0,0,0-0.1,0-0.1c0,0,0-0.1-0.1-0.1c0,0-0.1-0.1-0.2-0.1
				c-0.1,0-0.2,0-0.3-0.1c-0.4-0.1-0.7-0.2-0.8-0.4c-0.2-0.2-0.2-0.4-0.2-0.7c0-0.2,0-0.4,0.1-0.6c0.1-0.2,0.2-0.3,0.3-0.4
				c0.1-0.1,0.3-0.2,0.5-0.3c0.2-0.1,0.4-0.1,0.7-0.1c0.4,0,0.8,0.1,1.2,0.2L65,26.8z"/>
			<path d="M65.9,24.4c0-0.1,0-0.2,0.1-0.3c0-0.1,0.1-0.2,0.2-0.2c0.1-0.1,0.1-0.1,0.2-0.2c0.1,0,0.2-0.1,0.3-0.1
				c0.1,0,0.2,0,0.3,0.1c0.1,0,0.2,0.1,0.2,0.2c0.1,0.1,0.1,0.1,0.2,0.2c0,0.1,0.1,0.2,0.1,0.3c0,0.1,0,0.2-0.1,0.3
				c0,0.1-0.1,0.2-0.2,0.2C67,25,67,25,66.9,25.1c-0.1,0-0.2,0.1-0.3,0.1c-0.1,0-0.2,0-0.3-0.1c-0.1,0-0.2-0.1-0.2-0.2
				c-0.1-0.1-0.1-0.1-0.2-0.2C65.9,24.6,65.9,24.5,65.9,24.4z M67.2,25.8v3.7H66v-3.7H67.2z"/>
			<path d="M70.3,26.8c-0.2-0.1-0.5-0.2-0.7-0.2c-0.1,0-0.2,0-0.3,0.1c-0.1,0-0.1,0.1-0.1,0.2c0,0,0,0.1,0,0.1c0,0,0,0.1,0.1,0.1
				c0,0,0.1,0,0.2,0.1c0.1,0,0.2,0,0.3,0.1c0.4,0.1,0.6,0.2,0.8,0.4c0.2,0.2,0.3,0.4,0.3,0.7c0,0.2,0,0.4-0.1,0.6
				c-0.1,0.2-0.2,0.3-0.4,0.4c-0.2,0.1-0.3,0.2-0.5,0.3c-0.2,0.1-0.4,0.1-0.7,0.1c-0.5,0-1-0.1-1.5-0.4l0.5-0.9
				c0.4,0.2,0.7,0.4,1,0.4c0.1,0,0.2,0,0.3-0.1c0.1-0.1,0.1-0.1,0.1-0.2c0,0,0-0.1,0-0.1c0,0,0-0.1-0.1-0.1c0,0-0.1-0.1-0.2-0.1
				c-0.1,0-0.2,0-0.3-0.1c-0.4-0.1-0.7-0.2-0.8-0.4c-0.2-0.2-0.2-0.4-0.2-0.7c0-0.2,0-0.4,0.1-0.6c0.1-0.2,0.2-0.3,0.3-0.4
				c0.1-0.1,0.3-0.2,0.5-0.3c0.2-0.1,0.4-0.1,0.7-0.1c0.4,0,0.8,0.1,1.2,0.2L70.3,26.8z"/>
		</g>
		<g>
			<rect x="21" y="0" width="4.2" height="29.4"/>
			<rect x="33.6" y="16.8" width="4.2" height="12.6"/>
			<rect x="33.6" y="0" width="4.2" height="12.6"/>
			<rect x="25.2" y="0" width="12.6" height="4.2"/>
			<rect x="25.2" y="25.2" width="12.6" height="4.2"/>
			<rect x="25.2" y="12.6" width="8.4" height="4.2"/>
		</g>
		<g>
			<rect width="4.2" height="25.2"/>
			<rect x="4.2" y="25.2" width="4.2" height="4.2"/>
			<rect x="12.6" width="4.2" height="25.2"/>
			<rect x="8.4" y="25.2" width="4.2" height="4.2"/>
		</g>
	</g>
</g>
</svg>
